<svg xmlns="http://www.w3.org/2000/svg" version="1.1" viewBox="0 0 1501.99 1498.19"><g id="Time_Graduation_Circle"><circle cx="746.01" cy="746.43" r="694.73" fill="none" stroke="#fff" stroke-width="2" /><line x1="746.01" y1="89.51" x2="746.01" y2="30.43" fill="none" stroke="#fff" stroke-width="2" /><line x1="775.6" y1="68.88" x2="776.83" y2="40.54" fill="none" stroke="#7f7f7f" stroke-width="2" /><line x1="805.11" y1="70.82" x2="807.59" y2="42.58" fill="none" stroke="#7f7f7f" stroke-width="2" /><line x1="833.3" y1="83.41" x2="838.86" y2="41.25" fill="none" stroke="#ccc" stroke-width="2" /><line x1="863.79" y1="78.54" x2="868.7" y2="50.61" fill="none" stroke="#7f7f7f" stroke-width="2" /><line x1="892.8" y1="84.31" x2="898.95" y2="56.64" fill="none" stroke="#7f7f7f" stroke-width="2" /><line x1="916.03" y1="111.88" x2="931.32" y2="54.82" fill="none" stroke="#fff" stroke-width="2" /><line x1="949.94" y1="99.62" x2="958.47" y2="72.59" fill="none" stroke="#7f7f7f" stroke-width="2" /><line x1="977.97" y1="109.14" x2="987.66" y2="82.49" fill="none" stroke="#7f7f7f" stroke-width="2" /><line x1="1001.93" y1="128.59" x2="1018.21" y2="89.29" fill="none" stroke="#ccc" stroke-width="2" /><line x1="1032.62" y1="131.78" x2="1044.61" y2="106.07" fill="none" stroke="#7f7f7f" stroke-width="2" /><line x1="1059.16" y1="144.87" x2="1072.25" y2="119.71" fill="none" stroke="#7f7f7f" stroke-width="2" /><line x1="1074.47" y1="177.51" x2="1104.01" y2="126.35" fill="none" stroke="#fff" stroke-width="2" /><line x1="1110.39" y1="174.46" x2="1125.63" y2="150.54" fill="none" stroke="#7f7f7f" stroke-width="2" /><line x1="1135.02" y1="190.88" x2="1151.27" y2="167.65" fill="none" stroke="#7f7f7f" stroke-width="2" /><line x1="1153.12" y1="215.88" x2="1179.02" y2="182.14" fill="none" stroke="#ccc" stroke-width="2" /><line x1="1181.95" y1="226.92" x2="1200.16" y2="205.18" fill="none" stroke="#7f7f7f" stroke-width="2" /><line x1="1204.18" y1="246.41" x2="1223.35" y2="225.5" fill="none" stroke="#7f7f7f" stroke-width="2" /><line x1="1210.54" y1="281.91" x2="1252.29" y2="240.15" fill="none" stroke="#fff" stroke-width="2" /><line x1="1246.03" y1="288.26" x2="1266.94" y2="269.1" fill="none" stroke="#7f7f7f" stroke-width="2" /><line x1="1265.53" y1="310.5" x2="1287.27" y2="292.28" fill="none" stroke="#7f7f7f" stroke-width="2" /><line x1="1276.56" y1="339.33" x2="1310.31" y2="313.43" fill="none" stroke="#ccc" stroke-width="2" /><line x1="1301.56" y1="357.43" x2="1324.79" y2="341.17" fill="none" stroke="#7f7f7f" stroke-width="2" /><line x1="1317.99" y1="382.05" x2="1341.9" y2="366.81" fill="none" stroke="#7f7f7f" stroke-width="2" /><line x1="1314.94" y1="417.97" x2="1366.1" y2="388.43" fill="none" stroke="#fff" stroke-width="2" /><line x1="1347.57" y1="433.28" x2="1372.74" y2="420.19" fill="none" stroke="#7f7f7f" stroke-width="2" /><line x1="1360.66" y1="459.82" x2="1386.37" y2="447.84" fill="none" stroke="#7f7f7f" stroke-width="2" /><line x1="1363.85" y1="490.51" x2="1403.15" y2="474.23" fill="none" stroke="#ccc" stroke-width="2" /><line x1="1383.3" y1="514.48" x2="1409.95" y2="504.79" fill="none" stroke="#7f7f7f" stroke-width="2" /><line x1="1392.82" y1="542.5" x2="1419.86" y2="533.97" fill="none" stroke="#7f7f7f" stroke-width="2" /><line x1="1380.56" y1="576.41" x2="1437.63" y2="561.12" fill="none" stroke="#fff" stroke-width="2" /><line x1="1408.14" y1="599.64" x2="1435.81" y2="593.5" fill="none" stroke="#7f7f7f" stroke-width="2" /><line x1="1413.9" y1="628.66" x2="1441.83" y2="623.74" fill="none" stroke="#7f7f7f" stroke-width="2" /><line x1="1409.03" y1="659.14" x2="1451.19" y2="653.59" fill="none" stroke="#ccc" stroke-width="2" /><line x1="1421.63" y1="687.33" x2="1449.87" y2="684.85" fill="none" stroke="#7f7f7f" stroke-width="2" /><line x1="1423.57" y1="716.85" x2="1451.9" y2="715.62" fill="none" stroke="#7f7f7f" stroke-width="2" /><line x1="1402.94" y1="746.43" x2="1462.01" y2="746.43" fill="none" stroke="#fff" stroke-width="2" /><line x1="1423.57" y1="776.02" x2="1451.9" y2="777.25" fill="none" stroke="#7f7f7f" stroke-width="2" /><line x1="1421.63" y1="805.53" x2="1449.87" y2="808.01" fill="none" stroke="#7f7f7f" stroke-width="2" /><line x1="1409.03" y1="833.72" x2="1451.19" y2="839.28" fill="none" stroke="#ccc" stroke-width="2" /><line x1="1413.9" y1="864.21" x2="1441.83" y2="869.12" fill="none" stroke="#7f7f7f" stroke-width="2" /><line x1="1408.14" y1="893.22" x2="1435.81" y2="899.37" fill="none" stroke="#7f7f7f" stroke-width="2" /><line x1="1380.56" y1="916.45" x2="1437.63" y2="931.74" fill="none" stroke="#fff" stroke-width="2" /><line x1="1392.82" y1="950.36" x2="1419.86" y2="958.89" fill="none" stroke="#7f7f7f" stroke-width="2" /><line x1="1383.3" y1="978.39" x2="1409.95" y2="988.08" fill="none" stroke="#7f7f7f" stroke-width="2" /><line x1="1363.85" y1="1002.35" x2="1403.15" y2="1018.63" fill="none" stroke="#ccc" stroke-width="2" /><line x1="1360.66" y1="1033.04" x2="1386.37" y2="1045.02" fill="none" stroke="#7f7f7f" stroke-width="2" /><line x1="1347.57" y1="1059.58" x2="1372.74" y2="1072.67" fill="none" stroke="#7f7f7f" stroke-width="2" /><line x1="1314.94" y1="1074.89" x2="1366.1" y2="1104.43" fill="none" stroke="#fff" stroke-width="2" /><line x1="1317.99" y1="1110.81" x2="1341.9" y2="1126.05" fill="none" stroke="#7f7f7f" stroke-width="2" /><line x1="1301.56" y1="1135.43" x2="1324.79" y2="1151.69" fill="none" stroke="#7f7f7f" stroke-width="2" /><line x1="1276.56" y1="1153.54" x2="1310.31" y2="1179.43" fill="none" stroke="#ccc" stroke-width="2" /><line x1="1265.53" y1="1182.36" x2="1287.27" y2="1200.58" fill="none" stroke="#7f7f7f" stroke-width="2" /><line x1="1246.03" y1="1204.6" x2="1266.94" y2="1223.76" fill="none" stroke="#7f7f7f" stroke-width="2" /><line x1="1210.54" y1="1210.96" x2="1252.29" y2="1252.71" fill="none" stroke="#fff" stroke-width="2" /><line x1="1204.18" y1="1246.45" x2="1223.35" y2="1267.36" fill="none" stroke="#7f7f7f" stroke-width="2" /><line x1="1181.95" y1="1265.95" x2="1200.16" y2="1287.69" fill="none" stroke="#7f7f7f" stroke-width="2" /><line x1="1153.12" y1="1276.98" x2="1179.02" y2="1310.72" fill="none" stroke="#ccc" stroke-width="2" /><line x1="1135.02" y1="1301.98" x2="1151.27" y2="1325.21" fill="none" stroke="#7f7f7f" stroke-width="2" /><line x1="1110.39" y1="1318.4" x2="1125.63" y2="1342.32" fill="none" stroke="#7f7f7f" stroke-width="2" /><line x1="1074.47" y1="1315.36" x2="1104.01" y2="1366.52" fill="none" stroke="#fff" stroke-width="2" /><line x1="1059.16" y1="1347.99" x2="1072.25" y2="1373.16" fill="none" stroke="#7f7f7f" stroke-width="2" /><line x1="1032.62" y1="1361.08" x2="1044.61" y2="1386.79" fill="none" stroke="#7f7f7f" stroke-width="2" /><line x1="1001.93" y1="1364.27" x2="1018.21" y2="1403.57" fill="none" stroke="#ccc" stroke-width="2" /><line x1="977.97" y1="1383.72" x2="987.66" y2="1410.37" fill="none" stroke="#7f7f7f" stroke-width="2" /><line x1="949.94" y1="1393.24" x2="958.47" y2="1420.28" fill="none" stroke="#7f7f7f" stroke-width="2" /><line x1="916.03" y1="1380.98" x2="931.32" y2="1438.05" fill="none" stroke="#fff" stroke-width="2" /><line x1="892.8" y1="1408.55" x2="898.95" y2="1436.23" fill="none" stroke="#7f7f7f" stroke-width="2" /><line x1="863.79" y1="1414.32" x2="868.7" y2="1442.25" fill="none" stroke="#7f7f7f" stroke-width="2" /><line x1="833.3" y1="1409.45" x2="838.86" y2="1451.61" fill="none" stroke="#ccc" stroke-width="2" /><line x1="805.11" y1="1422.05" x2="807.59" y2="1450.29" fill="none" stroke="#7f7f7f" stroke-width="2" /><line x1="775.6" y1="1423.99" x2="776.83" y2="1452.32" fill="none" stroke="#7f7f7f" stroke-width="2" /><line x1="746.01" y1="1403.36" x2="746.01" y2="1462.43" fill="none" stroke="#fff" stroke-width="2" /><line x1="716.43" y1="1423.99" x2="715.2" y2="1452.32" fill="none" stroke="#7f7f7f" stroke-width="2" /><line x1="686.91" y1="1422.05" x2="684.43" y2="1450.29" fill="none" stroke="#7f7f7f" stroke-width="2" /><line x1="658.72" y1="1409.45" x2="653.17" y2="1451.61" fill="none" stroke="#ccc" stroke-width="2" /><line x1="628.24" y1="1414.32" x2="623.32" y2="1442.25" fill="none" stroke="#7f7f7f" stroke-width="2" /><line x1="599.22" y1="1408.55" x2="593.08" y2="1436.23" fill="none" stroke="#7f7f7f" stroke-width="2" /><line x1="575.99" y1="1380.98" x2="560.7" y2="1438.05" fill="none" stroke="#fff" stroke-width="2" /><line x1="542.08" y1="1393.24" x2="533.55" y2="1420.28" fill="none" stroke="#7f7f7f" stroke-width="2" /><line x1="514.06" y1="1383.72" x2="504.37" y2="1410.37" fill="none" stroke="#7f7f7f" stroke-width="2" /><line x1="490.09" y1="1364.27" x2="473.81" y2="1403.57" fill="none" stroke="#ccc" stroke-width="2" /><line x1="459.4" y1="1361.08" x2="447.42" y2="1386.79" fill="none" stroke="#7f7f7f" stroke-width="2" /><line x1="432.86" y1="1347.99" x2="419.77" y2="1373.16" fill="none" stroke="#7f7f7f" stroke-width="2" /><line x1="417.55" y1="1315.36" x2="388.01" y2="1366.52" fill="none" stroke="#fff" stroke-width="2" /><line x1="381.63" y1="1318.4" x2="366.39" y2="1342.32" fill="none" stroke="#7f7f7f" stroke-width="2" /><line x1="357.01" y1="1301.98" x2="340.75" y2="1325.21" fill="none" stroke="#7f7f7f" stroke-width="2" /><line x1="338.91" y1="1276.98" x2="313.01" y2="1310.72" fill="none" stroke="#ccc" stroke-width="2" /><line x1="310.08" y1="1265.95" x2="291.86" y2="1287.69" fill="none" stroke="#7f7f7f" stroke-width="2" /><line x1="287.84" y1="1246.45" x2="268.68" y2="1267.36" fill="none" stroke="#7f7f7f" stroke-width="2" /><line x1="281.49" y1="1210.96" x2="239.73" y2="1252.71" fill="none" stroke="#fff" stroke-width="2" /><line x1="245.99" y1="1204.6" x2="225.08" y2="1223.76" fill="none" stroke="#7f7f7f" stroke-width="2" /><line x1="226.5" y1="1182.36" x2="204.76" y2="1200.58" fill="none" stroke="#7f7f7f" stroke-width="2" /><line x1="215.46" y1="1153.54" x2="181.72" y2="1179.43" fill="none" stroke="#ccc" stroke-width="2" /><line x1="190.46" y1="1135.43" x2="167.23" y2="1151.69" fill="none" stroke="#7f7f7f" stroke-width="2" /><line x1="174.04" y1="1110.81" x2="150.12" y2="1126.05" fill="none" stroke="#7f7f7f" stroke-width="2" /><line x1="177.09" y1="1074.89" x2="125.93" y2="1104.43" fill="none" stroke="#fff" stroke-width="2" /><line x1="144.45" y1="1059.58" x2="119.29" y2="1072.67" fill="none" stroke="#7f7f7f" stroke-width="2" /><line x1="131.36" y1="1033.04" x2="105.65" y2="1045.02" fill="none" stroke="#7f7f7f" stroke-width="2" /><line x1="128.17" y1="1002.35" x2="88.87" y2="1018.63" fill="none" stroke="#ccc" stroke-width="2" /><line x1="108.72" y1="978.39" x2="82.07" y2="988.08" fill="none" stroke="#7f7f7f" stroke-width="2" /><line x1="99.2" y1="950.36" x2="72.17" y2="958.89" fill="none" stroke="#7f7f7f" stroke-width="2" /><line x1="111.47" y1="916.45" x2="54.4" y2="931.74" fill="none" stroke="#fff" stroke-width="2" /><line x1="83.89" y1="893.22" x2="56.22" y2="899.37" fill="none" stroke="#7f7f7f" stroke-width="2" /><line x1="78.12" y1="864.21" x2="50.19" y2="869.12" fill="none" stroke="#7f7f7f" stroke-width="2" /><line x1="82.99" y1="833.72" x2="40.83" y2="839.28" fill="none" stroke="#ccc" stroke-width="2" /><line x1="70.4" y1="805.53" x2="42.16" y2="808.01" fill="none" stroke="#7f7f7f" stroke-width="2" /><line x1="68.46" y1="776.02" x2="40.13" y2="777.25" fill="none" stroke="#7f7f7f" stroke-width="2" /><line x1="89.09" y1="746.43" x2="30.01" y2="746.43" fill="none" stroke="#fff" stroke-width="2" /><line x1="68.46" y1="716.85" x2="40.13" y2="715.62" fill="none" stroke="#7f7f7f" stroke-width="2" /><line x1="70.4" y1="687.33" x2="42.16" y2="684.85" fill="none" stroke="#7f7f7f" stroke-width="2" /><line x1="82.99" y1="659.14" x2="40.83" y2="653.59" fill="none" stroke="#ccc" stroke-width="2" /><line x1="78.12" y1="628.66" x2="50.19" y2="623.74" fill="none" stroke="#7f7f7f" stroke-width="2" /><line x1="83.89" y1="599.64" x2="56.22" y2="593.5" fill="none" stroke="#7f7f7f" stroke-width="2" /><line x1="111.47" y1="576.41" x2="54.4" y2="561.12" fill="none" stroke="#fff" stroke-width="2" /><line x1="99.2" y1="542.5" x2="72.17" y2="533.97" fill="none" stroke="#7f7f7f" stroke-width="2" /><line x1="108.72" y1="514.48" x2="82.07" y2="504.79" fill="none" stroke="#7f7f7f" stroke-width="2" /><line x1="128.17" y1="490.51" x2="88.87" y2="474.23" fill="none" stroke="#ccc" stroke-width="2" /><line x1="131.36" y1="459.82" x2="105.65" y2="447.84" fill="none" stroke="#7f7f7f" stroke-width="2" /><line x1="144.45" y1="433.28" x2="119.29" y2="420.19" fill="none" stroke="#7f7f7f" stroke-width="2" /><line x1="177.09" y1="417.97" x2="125.93" y2="388.43" fill="none" stroke="#fff" stroke-width="2" /><line x1="174.04" y1="382.05" x2="150.12" y2="366.81" fill="none" stroke="#7f7f7f" stroke-width="2" /><line x1="190.46" y1="357.43" x2="167.23" y2="341.17" fill="none" stroke="#7f7f7f" stroke-width="2" /><line x1="215.46" y1="339.33" x2="181.72" y2="313.43" fill="none" stroke="#ccc" stroke-width="2" /><line x1="226.5" y1="310.5" x2="204.76" y2="292.28" fill="none" stroke="#7f7f7f" stroke-width="2" /><line x1="245.99" y1="288.26" x2="225.08" y2="269.1" fill="none" stroke="#7f7f7f" stroke-width="2" /><line x1="281.49" y1="281.91" x2="239.73" y2="240.15" fill="none" stroke="#fff" stroke-width="2" /><line x1="287.84" y1="246.41" x2="268.68" y2="225.5" fill="none" stroke="#7f7f7f" stroke-width="2" /><line x1="310.08" y1="226.92" x2="291.86" y2="205.18" fill="none" stroke="#7f7f7f" stroke-width="2" /><line x1="338.91" y1="215.88" x2="313.01" y2="182.14" fill="none" stroke="#ccc" stroke-width="2" /><line x1="357.01" y1="190.88" x2="340.75" y2="167.65" fill="none" stroke="#7f7f7f" stroke-width="2" /><line x1="381.63" y1="174.46" x2="366.39" y2="150.54" fill="none" stroke="#7f7f7f" stroke-width="2" /><line x1="417.55" y1="177.51" x2="388.01" y2="126.35" fill="none" stroke="#fff" stroke-width="2" /><line x1="432.86" y1="144.87" x2="419.77" y2="119.71" fill="none" stroke="#7f7f7f" stroke-width="2" /><line x1="459.4" y1="131.78" x2="447.42" y2="106.07" fill="none" stroke="#7f7f7f" stroke-width="2" /><line x1="490.09" y1="128.59" x2="473.81" y2="89.29" fill="none" stroke="#ccc" stroke-width="2" /><line x1="514.06" y1="109.14" x2="504.37" y2="82.49" fill="none" stroke="#7f7f7f" stroke-width="2" /><line x1="542.08" y1="99.62" x2="533.55" y2="72.59" fill="none" stroke="#7f7f7f" stroke-width="2" /><line x1="575.99" y1="111.88" x2="560.7" y2="54.82" fill="none" stroke="#fff" stroke-width="2" /><line x1="599.22" y1="84.31" x2="593.08" y2="56.64" fill="none" stroke="#7f7f7f" stroke-width="2" /><line x1="628.24" y1="78.54" x2="623.32" y2="50.61" fill="none" stroke="#7f7f7f" stroke-width="2" /><line x1="658.72" y1="83.41" x2="653.17" y2="41.25" fill="none" stroke="#ccc" stroke-width="2" /><line x1="686.91" y1="70.82" x2="684.43" y2="42.58" fill="none" stroke="#7f7f7f" stroke-width="2" /><line x1="716.43" y1="68.88" x2="715.2" y2="40.54" fill="none" stroke="#7f7f7f" stroke-width="2" /><text transform="translate(737.27 17.16)" fill="#fff" font-family="ArialMT, Arial" font-size="20" isolation="isolate"><tspan x="0" y="0">0h</tspan></text><text transform="translate(546.45 42.28)" fill="#fff" font-family="ArialMT, Arial" font-size="20" isolation="isolate"><tspan x="0" y="0">1h</tspan></text><text transform="translate(368.63 115.94)" fill="#fff" font-family="ArialMT, Arial" font-size="20" isolation="isolate"><tspan x="0" y="0">2h</tspan></text><text transform="translate(215.93 233.1)" fill="#fff" font-family="ArialMT, Arial" font-size="20" isolation="isolate"><tspan x="0" y="0">3h</tspan></text><text transform="translate(98.78 385.8)" fill="#fff" font-family="ArialMT, Arial" font-size="20" isolation="isolate"><tspan x="0" y="0">4h</tspan></text><text transform="translate(25.12 563.62)" fill="#fff" font-family="ArialMT, Arial" font-size="20" isolation="isolate"><tspan x="0" y="0">5h</tspan></text><text transform="translate(0 754.43)" fill="#fff" font-family="ArialMT, Arial" font-size="20" isolation="isolate"><tspan x="0" y="0">6h</tspan></text><text transform="translate(25.12 945.25)" fill="#fff" font-family="ArialMT, Arial" font-size="20" isolation="isolate"><tspan x="0" y="0">7h</tspan></text><text transform="translate(98.78 1123.06)" fill="#fff" font-family="ArialMT, Arial" font-size="20" isolation="isolate"><tspan x="0" y="0">8h</tspan></text><text transform="translate(215.93 1275.76)" fill="#fff" font-family="ArialMT, Arial" font-size="20" isolation="isolate"><tspan x="0" y="0">9h</tspan></text><text transform="translate(362.72 1392.92)" fill="#fff" font-family="ArialMT, Arial" font-size="20" isolation="isolate"><tspan x="0" y="0">10h</tspan></text><text transform="translate(541.33 1466.58)" fill="#fff" font-family="ArialMT, Arial" font-size="20" isolation="isolate"><tspan x="0" y="0">11h</tspan></text><text transform="translate(731.35 1491.7)" fill="#fff" font-family="ArialMT, Arial" font-size="20" isolation="isolate"><tspan x="0" y="0">12h</tspan></text><text transform="translate(922.17 1466.58)" fill="#fff" font-family="ArialMT, Arial" font-size="20" isolation="isolate"><tspan x="0" y="0">13h</tspan></text><text transform="translate(1099.99 1392.92)" fill="#fff" font-family="ArialMT, Arial" font-size="20" isolation="isolate"><tspan x="0" y="0">14h</tspan></text><text transform="translate(1252.69 1275.76)" fill="#fff" font-family="ArialMT, Arial" font-size="20" isolation="isolate"><tspan x="0" y="0">15h</tspan></text><text transform="translate(1369.85 1123.06)" fill="#fff" font-family="ArialMT, Arial" font-size="20" isolation="isolate"><tspan x="0" y="0">16h</tspan></text><text transform="translate(1443.5 945.25)" fill="#fff" font-family="ArialMT, Arial" font-size="20" isolation="isolate"><tspan x="0" y="0">17h</tspan></text><text transform="translate(1468.62 754.43)" fill="#fff" font-family="ArialMT, Arial" font-size="20" isolation="isolate"><tspan x="0" y="0">18h</tspan></text><text transform="translate(1443.5 563.62)" fill="#fff" font-family="ArialMT, Arial" font-size="20" isolation="isolate"><tspan x="0" y="0">19h</tspan></text><text transform="translate(1369.85 385.8)" fill="#fff" font-family="ArialMT, Arial" font-size="20" isolation="isolate"><tspan x="0" y="0">20h</tspan></text><text transform="translate(1252.69 233.1)" fill="#fff" font-family="ArialMT, Arial" font-size="20" isolation="isolate"><tspan x="0" y="0">21h</tspan></text><text transform="translate(1099.99 115.94)" fill="#fff" font-family="ArialMT, Arial" font-size="20" isolation="isolate"><tspan x="0" y="0">22h</tspan></text><text transform="translate(922.17 42.28)" fill="#fff" font-family="ArialMT, Arial" font-size="20" isolation="isolate"><tspan x="0" y="0">23h</tspan></text></g></svg>