<svg xmlns="http://www.w3.org/2000/svg" version="1.1" viewBox="0 0 1501.99 1498.19"><g id="Polar_Scope_Circle"><circle cx="746.01" cy="746.43" r="358.5" fill="none" stroke="red" stroke-width="2"/><circle cx="746.01" cy="746.43" r="342.5" fill="none" stroke="red" stroke-width="2"/><circle cx="746.01" cy="746.43" r="326.5" fill="none" stroke="red" stroke-width="2"/><path d="M746.01,326.43L746.01,1166.43M326.01,746.43L1166.01,746.43M746.01,349.93L746.01,387.93M746.01,1104.93L746.01,1142.93M349.51,746.43L387.51,746.43M1104.51,746.43L1142.51,746.43M731.5,427.9L760.5,427.9M731.5,1064.9L760.5,1064.9M427.5,731.9L427.5,760.9M1064.5,731.9L1064.5,760.9M731.5,411.7L760.5,411.7M731.5,1080.7L760.5,1080.7M411.5,731.7L411.5,760.7M1080.5,731.7L1080.5,760.7M731.5,395.9L760.5,395.9M731.5,1096.9L760.5,1096.9M395.5,731.9L395.5,760.9M1096.5,731.9L1096.5,760.9" fill="none" stroke="red" stroke-width="2"/><text x="736.22" y="322.68" fill="red" font-family="Arial" font-size="35">0</text><text x="1166.72" y="755.68" fill="red" font-family="Arial" font-size="35">3</text><text x="304.72" y="755.68" fill="red" font-family="Arial" font-size="35">9</text><text x="736.22" y="1197.68" fill="red" font-family="Arial" font-size="35">6</text></g><g id="Date_Graduation_Circle"><circle cx="746.01" cy="746.43" r="590.76" fill="none" stroke="#94a3b8" stroke-width="2"/><path d="M746.01,110.77L746.01,214.75M1380.7,765.6L1276.8,762.4M746.01,1381.88L746.01,1277.95M111.0,743.7L215.0,744.1M1069.0,199.7L1016.1,289.3M1302.2,440.0L1211.1,490.2M1299.5,1057.6L1208.9,1006.6M1064.3,1295.9L1012.2,1205.9M427.7,1295.9L479.9,1205.9M197.9,1067.1L287.7,1014.6M200.7,421.1L290.0,474.4M432.5,194.2L483.8,284.7" fill="none" stroke="#fc0" stroke-width="2"/><text x="1250" y="620" fill="#7f6700" font-family="Arial" font-size="35">1</text><text x="1248" y="881" fill="#7f6700" font-family="Arial" font-size="35">2</text><text x="1119" y="1109" fill="#7f6700" font-family="Arial" font-size="35">3</text><text x="887" y="1247" fill="#7f6700" font-family="Arial" font-size="35">4</text><text x="618" y="1250" fill="#7f6700" font-family="Arial" font-size="35">5</text><text x="382" y="1118" fill="#7f6700" font-family="Arial" font-size="35">6</text><text x="245" y="886" fill="#7f6700" font-family="Arial" font-size="35">7</text><text x="244" y="612" fill="#7f6700" font-family="Arial" font-size="35">8</text><text x="379" y="378" fill="#7f6700" font-family="Arial" font-size="35">9</text><text x="613" y="244" fill="#7f6700" font-family="Arial" font-size="35">10</text><text x="883" y="245" fill="#7f6700" font-family="Arial" font-size="35">11</text><text x="1116" y="381" fill="#7f6700" font-family="Arial" font-size="35">12</text></g></svg>